<svg width="23" height="24" viewBox="0 0 23 24" fill="none" xmlns="http://www.w3.org/2000/svg">
<path d="M16.0057 14.1409C18.7 10.3364 17.7989 5.06829 13.9944 2.3747C10.1899 -0.318882 4.9218 0.581555 2.22822 4.38669C-0.465366 8.19117 0.43507 13.4586 4.2402 16.1522C6.95567 18.0747 10.5458 18.2228 13.41 16.5313L19.6332 22.7172C20.3052 23.4246 21.4232 23.4529 22.1305 22.7809C22.8379 22.1096 22.8662 20.9917 22.1949 20.2843C22.1736 20.2618 22.153 20.2412 22.1305 20.2199L16.0057 14.1409ZM9.11183 14.7176C6.10544 14.7182 3.66802 12.2827 3.66609 9.27633C3.66544 6.26994 6.10093 3.83252 9.10796 3.83124C12.1105 3.82995 14.5466 6.26158 14.5524 9.2641C14.5576 12.2711 12.1234 14.7124 9.11569 14.7176C9.1144 14.7176 9.11376 14.7176 9.11183 14.7176Z" fill="#01A88E"/>
<rect x="6.24414" y="10.1016" width="1.85583" height="5.5675" rx="0.927916" transform="rotate(-90 6.24414 10.1016)" fill="#01A88E"/>
<rect x="8.09961" y="6.38867" width="1.85583" height="5.5675" rx="0.927916" fill="#01A88E"/>
</svg>
